<svg xmlns="http://www.w3.org/2000/svg" viewBox="0 0 1600 900" role="img" aria-labelledby="title desc">
  <title>Ghana, Benin and Togo expedition hero illustration</title>
  <desc>Stylized West African coastline with a floating village, a shrine forest, and Atlantic fort silhouettes at sunset.</desc>
  <defs>
    <linearGradient id="sky" x1="0" y1="0" x2="0" y2="1">
      <stop offset="0%" stop-color="#10243A"/>
      <stop offset="45%" stop-color="#1E4E68"/>
      <stop offset="100%" stop-color="#E0A65A"/>
    </linearGradient>
    <linearGradient id="sea" x1="0" y1="0" x2="0" y2="1">
      <stop offset="0%" stop-color="#2F7A7C"/>
      <stop offset="100%" stop-color="#14333E"/>
    </linearGradient>
    <radialGradient id="sunGlow" cx="50%" cy="40%" r="40%">
      <stop offset="0%" stop-color="#FFE5A8" stop-opacity="0.95"/>
      <stop offset="100%" stop-color="#FFE5A8" stop-opacity="0"/>
    </radialGradient>
    <filter id="soft"><feGaussianBlur stdDeviation="18"/></filter>
  </defs>
  <rect width="1600" height="900" fill="url(#sky)"/>
  <circle cx="1100" cy="255" r="135" fill="#F8D38B" opacity="0.95"/>
  <circle cx="1100" cy="255" r="260" fill="url(#sunGlow)" filter="url(#soft)"/>
  <path d="M0 560C150 520 220 470 335 476c114 6 191 72 287 58 96-14 163-94 294-90 130 4 178 70 300 62 123-8 171-54 384-120v414H0z" fill="#234658" opacity="0.86"/>
  <path d="M0 636c160-28 286-32 446-2 139 26 237 52 356 44 118-9 204-54 322-54 145 0 250 46 476 108v168H0z" fill="url(#sea)"/>
  <path d="M0 700c121 22 197 31 309 28 115-4 177-32 288-37 116-5 190 19 313 29 113 9 197 0 313-23 112-22 211-26 377 17" fill="none" stroke="#86C0B6" stroke-width="6" stroke-linecap="round" opacity="0.35"/>
  <path d="M0 748c121 22 197 31 309 28 115-4 177-32 288-37 116-5 190 19 313 29 113 9 197 0 313-23 112-22 211-26 377 17" fill="none" stroke="#C7E4DE" stroke-width="2.5" stroke-linecap="round" opacity="0.55"/>
  <g transform="translate(110 455)">
    <rect x="36" y="120" width="10" height="135" fill="#4D2C1E"/>
    <rect x="120" y="140" width="10" height="115" fill="#4D2C1E"/>
    <rect x="210" y="125" width="10" height="130" fill="#4D2C1E"/>
    <rect x="305" y="145" width="10" height="110" fill="#4D2C1E"/>
    <path d="M0 140 90 92 174 140z" fill="#D9AB6A"/>
    <rect x="16" y="140" width="150" height="78" rx="3" fill="#C4944A"/>
    <path d="M164 150 250 106 328 150z" fill="#E4B777"/>
    <rect x="182" y="150" width="128" height="64" rx="3" fill="#C28A52"/>
    <path d="M62 170h24M88 170h18M212 178h18M236 178h22" stroke="#F5EDE0" stroke-width="3" opacity="0.8"/>
    <path d="M-24 252c44-27 76-36 111-31 34 5 57 29 103 29 45 0 73-23 108-26 35-3 59 8 88 28" fill="none" stroke="#F5EDE0" stroke-width="4" stroke-linecap="round" opacity="0.65"/>
    <path d="M-60 286 22 236l34 19-82 48z" fill="#2A3A4A" opacity="0.9"/>
  </g>
  <g transform="translate(700 310)">
    <rect x="98" y="194" width="16" height="148" fill="#241C17"/>
    <path d="M106 68c52 0 94 41 94 92 0 21-8 43-21 60H34c-18-17-28-39-28-62 0-50 45-90 100-90 11-46 55-79 104-79 57 0 103 43 108 97" fill="#173326"/>
    <path d="M126 108c0 0 30 28 18 59-12 31-41 33-41 33s18-16 17-39c-1-23-18-40-18-40s16-1 24-13z" fill="#C4944A" opacity="0.82"/>
    <path d="M252 216c-40-6-83-6-132 0 2-42 28-66 66-66s64 24 66 66z" fill="#8A3F2A"/>
    <rect x="150" y="216" width="74" height="74" rx="2" fill="#B86A3B"/>
    <path d="M188 216v74M150 253h74" stroke="#F5EDE0" stroke-width="3" opacity="0.55"/>
  </g>
  <g transform="translate(1170 350)">
    <rect x="250" y="100" width="12" height="270" fill="#38261A"/>
    <path d="M0 300h330v90H0z" fill="#ECD9B4"/>
    <path d="M0 255h208v45H0z" fill="#F5E6C9"/>
    <path d="M18 230 64 194 110 230z" fill="#F0D6A0"/>
    <path d="M76 230 132 180 188 230z" fill="#F7E6BE"/>
    <rect x="28" y="255" width="46" height="45" fill="#DCC08A"/>
    <rect x="94" y="255" width="56" height="45" fill="#D5B06E"/>
    <rect x="230" y="132" width="52" height="238" fill="#E9D3A3"/>
    <path d="M230 132 256 104 282 132z" fill="#F7E5C2"/>
    <path d="M-40 390c56-26 92-35 142-35 48 0 88 9 146 33 51 21 76 26 122 27" fill="none" stroke="#F5EDE0" stroke-width="4" opacity="0.55" stroke-linecap="round"/>
  </g>
</svg>